<svg xmlns="http://www.w3.org/2000/svg" height="48" width="48"><path d="m34.7 42 2.65-2.7-4.65-4.65L30 37.3q-1 1-.975 2.35Q29.05 41 30 42q1 .95 2.35.975Q33.7 43 34.7 42Zm4.7-4.75 2.7-2.65q1-1 .975-2.35-.025-1.35-1.025-2.35-1-1-2.325-1-1.325 0-2.325 1l-2.65 2.7Zm-2.6 6.85q-1.85 1.85-4.45 1.85T27.9 44.1q-1.85-1.85-1.85-4.45t1.85-4.45l7.4-7.4q1.85-1.85 4.45-1.85t4.45 1.85q1.85 1.85 1.85 4.45T44.2 36.7ZM9 39V9v30Zm0 3q-1.25 0-2.125-.875T6 39V9q0-1.25.875-2.125T9 6h10.25q.25-1.75 1.6-2.875T24 2q1.8 0 3.15 1.125Q28.5 4.25 28.75 6H39q1.25 0 2.125.875T42 9v14.2q-.75-.2-1.5-.25-.75-.05-1.5.05V9H9v30h14.05q-.05.75.025 1.5.075.75.275 1.5ZM24 8.15q.7 0 1.225-.525.525-.525.525-1.225 0-.7-.525-1.225Q24.7 4.65 24 4.65q-.7 0-1.225.525-.525.525-.525 1.225 0 .7.525 1.225.525.525 1.225.525ZM14 17v-3h20v3Zm0 8.5v-3h20v2.45q-.15.1-.325.25-.175.15-.325.3Zm0 8.5v-3h13.85l-2.1 2.1q-.25.25-.425.45t-.375.45Z"/></svg>
<svg xmlns="http://www.w3.org/2000/svg" class="icon icon-tabler icon-tabler-medical-cross" width="44" height="44" viewBox="0 0 24 24" stroke-width="1.5" stroke="#009988" fill="none" stroke-linecap="round" stroke-linejoin="round">
  <path stroke="none" d="M0 0h24v24H0z" fill="none"/>
  <path d="M13 3a1 1 0 0 1 1 1v4.535l3.928 -2.267a1 1 0 0 1 1.366 .366l1 1.732a1 1 0 0 1 -.366 1.366l-3.927 2.268l3.927 2.269a1 1 0 0 1 .366 1.366l-1 1.732a1 1 0 0 1 -1.366 .366l-3.928 -2.269v4.536a1 1 0 0 1 -1 1h-2a1 1 0 0 1 -1 -1v-4.536l-3.928 2.268a1 1 0 0 1 -1.366 -.366l-1 -1.732a1 1 0 0 1 .366 -1.366l3.927 -2.268l-3.927 -2.268a1 1 0 0 1 -.366 -1.366l1 -1.732a1 1 0 0 1 1.366 -.366l3.928 2.267v-4.535a1 1 0 0 1 1 -1h2z" />
</svg>